<?xml version="1.0"?>

<svg width="100%" height="100%" viewBox="0 0 792 205" version="1.1" xmlns="http://www.w3.org/2000/svg" xmlns:xlink="http://www.w3.org/1999/xlink" xml:space="preserve" xmlns:serif="http://www.serif.com/" style="fill-rule:evenodd;clip-rule:evenodd;stroke-miterlimit:2;">
    <g transform="matrix(4.16667,0,0,4.16667,0,0)">
        <path d="M67.71,24.746C67.809,24.746 67.871,24.697 67.871,24.598L67.871,22.608C67.871,22.509 67.809,22.459 67.71,22.459L67.043,22.459C66.944,22.459 66.882,22.509 66.882,22.608L66.882,23.819L63.161,23.819L63.161,20.79L66.289,20.79C66.388,20.79 66.449,20.741 66.449,20.642L66.449,20.012C66.449,19.913 66.388,19.863 66.289,19.863L63.161,19.863L63.161,16.798L66.895,16.798L66.895,18.009C66.895,18.108 66.944,18.17 67.043,18.17L67.71,18.17C67.809,18.17 67.871,18.108 67.871,18.009L67.871,16.019C67.871,15.92 67.809,15.87 67.71,15.87L61.146,15.87C61.035,15.87 60.985,15.92 60.985,16.019L60.985,16.649C60.985,16.748 61.047,16.798 61.146,16.798L62.086,16.798L62.086,23.819L61.146,23.819C61.035,23.819 60.985,23.869 60.985,23.967L60.985,24.598C60.985,24.697 61.047,24.746 61.146,24.746L67.71,24.746Z" style="fill:rgb(92,93,101);fill-rule:nonzero;"></path>
        <path d="M74.93,24.746C75.016,24.746 75.078,24.697 75.078,24.598L75.078,24.066C75.078,23.967 75.029,23.918 74.93,23.918L74.386,23.918L72.581,21.779L74.262,19.492L74.93,19.492C75.029,19.492 75.078,19.443 75.078,19.344L75.078,18.813C75.078,18.714 75.029,18.664 74.93,18.664L72.841,18.664C72.742,18.664 72.692,18.714 72.692,18.813L72.692,19.344C72.692,19.443 72.754,19.492 72.841,19.492L73.335,19.492L72.086,21.26L70.628,19.492L71.209,19.492C71.295,19.492 71.357,19.443 71.357,19.344L71.357,18.813C71.357,18.714 71.308,18.664 71.209,18.664L68.885,18.664C68.786,18.664 68.736,18.714 68.736,18.813L68.736,19.344C68.736,19.443 68.798,19.492 68.885,19.492L69.478,19.492L71.283,21.643L69.478,23.918L68.885,23.918C68.786,23.918 68.736,23.967 68.736,24.066L68.736,24.598C68.736,24.697 68.786,24.746 68.885,24.746L70.974,24.746C71.06,24.746 71.122,24.697 71.122,24.598L71.122,24.066C71.122,23.967 71.073,23.918 70.974,23.918L70.405,23.918L71.765,22.126L73.224,23.918L72.606,23.918C72.507,23.918 72.457,23.967 72.457,24.066L72.457,24.598C72.457,24.697 72.507,24.746 72.606,24.746L74.93,24.746Z" style="fill:rgb(92,93,101);fill-rule:nonzero;"></path>
        <path d="M78.465,27.528C78.564,27.528 78.626,27.478 78.626,27.379L78.626,26.848C78.626,26.749 78.564,26.7 78.465,26.7L77.662,26.7L77.662,24.19C77.662,24.017 77.625,23.621 77.625,23.621L77.662,23.621C77.921,24.215 78.577,24.833 79.677,24.833C81.37,24.833 82.446,23.522 82.446,21.693C82.446,19.789 81.309,18.578 79.664,18.578C78.552,18.578 77.884,19.208 77.612,19.789L77.6,19.789L77.612,18.813C77.612,18.714 77.551,18.664 77.452,18.664L76.005,18.664C75.906,18.664 75.845,18.714 75.845,18.813L75.845,19.344C75.845,19.443 75.906,19.492 76.005,19.492L76.673,19.492L76.673,26.7L75.981,26.7C75.882,26.7 75.82,26.749 75.82,26.848L75.82,27.379C75.82,27.478 75.882,27.528 75.981,27.528L78.465,27.528ZM79.528,23.967C78.577,23.967 77.637,23.201 77.637,21.804C77.637,20.172 78.589,19.443 79.528,19.443C80.604,19.443 81.432,20.308 81.432,21.718C81.432,23.077 80.616,23.967 79.528,23.967Z" style="fill:rgb(92,93,101);fill-rule:nonzero;"></path>
        <path d="M88.837,21.829C88.948,21.829 89.01,21.767 89.01,21.668C89.047,19.752 88.021,18.578 86.253,18.578C84.77,18.578 83.336,19.678 83.336,21.681C83.336,23.658 84.708,24.833 86.377,24.833C88.009,24.833 88.849,23.807 89.01,23.535C89.06,23.461 89.047,23.386 88.961,23.312L88.627,22.979C88.54,22.917 88.466,22.929 88.404,23.016C88.231,23.3 87.502,23.968 86.439,23.968C85.462,23.968 84.449,23.275 84.387,21.829L88.837,21.829ZM84.411,21.075C84.56,19.888 85.425,19.394 86.278,19.394C87.341,19.394 87.935,20.073 87.984,21.075L84.411,21.075Z" style="fill:rgb(92,93,101);fill-rule:nonzero;"></path>
        <path d="M96.464,24.746C96.551,24.746 96.612,24.697 96.612,24.598L96.612,24.066C96.612,23.968 96.563,23.918 96.464,23.918L95.772,23.918L95.772,16.019C95.772,15.92 95.722,15.87 95.623,15.87L94.091,15.87C93.992,15.87 93.93,15.92 93.93,16.019L93.93,16.55C93.93,16.649 93.992,16.699 94.091,16.699L94.783,16.699L94.783,19.381C94.783,19.542 94.795,19.789 94.795,19.789L94.783,19.789C94.523,19.196 93.88,18.578 92.78,18.578C91.099,18.578 89.986,19.851 89.986,21.668C89.986,23.597 91.124,24.833 92.768,24.833C93.893,24.833 94.597,24.141 94.832,23.535L94.845,23.535L94.845,24.227C94.845,24.61 95.018,24.746 95.389,24.746L96.464,24.746ZM92.916,23.968C91.804,23.968 91,23.053 91,21.681C91,20.284 91.853,19.443 92.916,19.443C93.93,19.443 94.795,20.247 94.795,21.693C94.795,23.09 93.979,23.968 92.916,23.968Z" style="fill:rgb(92,93,101);fill-rule:nonzero;"></path>
        <path d="M100.074,24.746C100.173,24.746 100.235,24.697 100.235,24.598L100.235,24.066C100.235,23.968 100.173,23.918 100.074,23.918L99.419,23.918L99.419,18.813C99.419,18.714 99.37,18.664 99.271,18.664L97.713,18.664C97.614,18.664 97.552,18.714 97.552,18.813L97.552,19.344C97.552,19.443 97.614,19.492 97.713,19.492L98.393,19.492L98.393,23.918L97.713,23.918C97.614,23.918 97.552,23.968 97.552,24.066L97.552,24.598C97.552,24.697 97.614,24.746 97.713,24.746L100.074,24.746ZM99.58,17.329C99.58,16.946 99.271,16.624 98.887,16.624C98.504,16.624 98.195,16.946 98.195,17.329C98.195,17.712 98.504,18.009 98.887,18.009C99.271,18.009 99.58,17.712 99.58,17.329Z" style="fill:rgb(92,93,101);fill-rule:nonzero;"></path>
        <path d="M104.92,23.733C104.858,23.658 104.784,23.646 104.698,23.72C104.648,23.77 104.413,23.955 104.042,23.955C103.375,23.955 102.979,23.535 102.979,22.707L102.979,19.492L104.549,19.492C104.648,19.492 104.722,19.431 104.722,19.332L104.722,18.825C104.722,18.726 104.648,18.664 104.549,18.664L102.979,18.664L102.979,17.416C102.979,17.317 102.918,17.243 102.819,17.243L102.126,17.243C102.027,17.243 101.953,17.317 101.953,17.416L101.953,18.664L101.261,18.664C101.162,18.664 101.088,18.726 101.088,18.825L101.088,19.332C101.088,19.431 101.162,19.492 101.261,19.492L101.953,19.492L101.953,22.731C101.953,24.128 102.707,24.833 103.944,24.833C104.673,24.833 105.081,24.45 105.192,24.351C105.266,24.277 105.291,24.19 105.217,24.116L104.92,23.733Z" style="fill:rgb(92,93,101);fill-rule:nonzero;"></path>
        <path d="M108.468,24.746C108.567,24.746 108.628,24.697 108.628,24.598L108.628,24.066C108.628,23.968 108.567,23.918 108.468,23.918L107.813,23.918L107.813,18.813C107.813,18.714 107.763,18.664 107.664,18.664L106.107,18.664C106.008,18.664 105.946,18.714 105.946,18.813L105.946,19.344C105.946,19.443 106.008,19.492 106.107,19.492L106.786,19.492L106.786,23.918L106.107,23.918C106.008,23.918 105.946,23.968 105.946,24.066L105.946,24.598C105.946,24.697 106.008,24.746 106.107,24.746L108.468,24.746ZM107.973,17.329C107.973,16.946 107.664,16.624 107.281,16.624C106.898,16.624 106.589,16.946 106.589,17.329C106.589,17.712 106.898,18.009 107.281,18.009C107.664,18.009 107.973,17.712 107.973,17.329Z" style="fill:rgb(92,93,101);fill-rule:nonzero;"></path>
        <path d="M114.921,21.829C115.032,21.829 115.094,21.767 115.094,21.668C115.131,19.752 114.105,18.578 112.337,18.578C110.854,18.578 109.42,19.678 109.42,21.681C109.42,23.658 110.792,24.833 112.461,24.833C114.092,24.833 114.933,23.807 115.094,23.535C115.143,23.461 115.131,23.386 115.044,23.312L114.71,22.979C114.624,22.917 114.55,22.929 114.488,23.016C114.315,23.3 113.586,23.968 112.522,23.968C111.546,23.968 110.532,23.275 110.47,21.829L114.921,21.829ZM110.495,21.075C110.643,19.888 111.509,19.394 112.362,19.394C113.425,19.394 114.018,20.073 114.068,21.075L110.495,21.075Z" style="fill:rgb(92,93,101);fill-rule:nonzero;"></path>
        <path d="M128.717,24.746C129.038,24.746 129.199,24.586 129.298,24.252L131.56,16.798L132.351,16.798C132.45,16.798 132.5,16.748 132.5,16.649L132.5,16.019C132.5,15.92 132.45,15.87 132.351,15.87L129.558,15.87C129.471,15.87 129.409,15.92 129.409,16.019L129.409,16.649C129.409,16.748 129.459,16.798 129.558,16.798L130.435,16.798L128.519,23.436L128.445,23.436L126.714,15.87L125.725,15.87L124.007,23.436L123.933,23.436L122.017,16.798L122.882,16.798C122.981,16.798 123.043,16.748 123.043,16.649L123.043,16.019C123.043,15.92 122.981,15.87 122.882,15.87L120.101,15.87C120.002,15.87 119.94,15.92 119.94,16.019L119.94,16.649C119.94,16.748 120.002,16.798 120.101,16.798L120.88,16.798L123.142,24.252C123.253,24.586 123.401,24.746 123.735,24.746L124.193,24.746C124.526,24.746 124.699,24.598 124.786,24.252L126.195,17.972L126.232,17.972L127.666,24.252C127.753,24.598 127.926,24.746 128.247,24.746L128.717,24.746Z" style="fill:rgb(92,93,101);fill-rule:nonzero;"></path>
        <path d="M137.135,21.829C137.247,21.829 137.309,21.767 137.309,21.668C137.346,19.752 136.32,18.578 134.552,18.578C133.068,18.578 131.634,19.678 131.634,21.681C131.634,23.658 133.007,24.833 134.675,24.833C136.307,24.833 137.148,23.807 137.309,23.535C137.358,23.461 137.346,23.387 137.259,23.312L136.925,22.979C136.839,22.917 136.765,22.929 136.703,23.016C136.53,23.3 135.8,23.968 134.737,23.968C133.761,23.968 132.747,23.275 132.685,21.829L137.135,21.829ZM132.71,21.075C132.858,19.888 133.724,19.394 134.576,19.394C135.64,19.394 136.233,20.073 136.282,21.075L132.71,21.075Z" style="fill:rgb(92,93,101);fill-rule:nonzero;"></path>
        <path d="M140.807,24.746C140.905,24.746 140.967,24.697 140.967,24.598L140.967,24.066C140.967,23.968 140.905,23.918 140.807,23.918L140.151,23.918L140.151,21.841C140.151,20.778 140.98,19.616 142.475,19.616L142.735,19.616C142.834,19.616 142.896,19.554 142.896,19.455L142.896,18.8C142.896,18.701 142.834,18.639 142.735,18.639C140.498,18.639 140.09,20.358 140.09,20.358L140.052,20.358L140.052,18.813C140.052,18.714 139.991,18.664 139.892,18.664L138.445,18.664C138.347,18.664 138.285,18.714 138.285,18.813L138.285,19.344C138.285,19.443 138.347,19.492 138.445,19.492L139.125,19.492L139.125,23.918L138.445,23.918C138.347,23.918 138.285,23.968 138.285,24.066L138.285,24.598C138.285,24.697 138.347,24.746 138.445,24.746L140.807,24.746Z" style="fill:rgb(92,93,101);fill-rule:nonzero;"></path>
        <path d="M149.88,24.746C149.966,24.746 150.028,24.697 150.028,24.598L150.028,24.066C150.028,23.968 149.979,23.918 149.88,23.918L149.348,23.918L147.037,20.815L148.545,19.492L149.348,19.492C149.447,19.492 149.497,19.443 149.497,19.344L149.497,18.813C149.497,18.714 149.447,18.664 149.348,18.664L146.975,18.664C146.876,18.664 146.826,18.714 146.826,18.813L146.826,19.344C146.826,19.443 146.876,19.492 146.975,19.492L147.42,19.492L145.17,21.557L145.17,16.019C145.17,15.92 145.121,15.87 145.022,15.87L143.464,15.87C143.365,15.87 143.303,15.92 143.303,16.019L143.303,16.55C143.303,16.649 143.365,16.699 143.464,16.699L144.144,16.699L144.144,23.918L143.464,23.918C143.365,23.918 143.303,23.968 143.303,24.066L143.303,24.598C143.303,24.697 143.365,24.746 143.464,24.746L145.825,24.746C145.924,24.746 145.986,24.697 145.986,24.598L145.986,24.066C145.986,23.968 145.924,23.918 145.825,23.918L145.17,23.918L145.17,22.509L146.369,21.396L148.557,24.363C148.73,24.61 148.953,24.746 149.212,24.746L149.88,24.746Z" style="fill:rgb(92,93,101);fill-rule:nonzero;"></path>
        <path d="M153.416,27.528C153.514,27.528 153.576,27.478 153.576,27.379L153.576,26.848C153.576,26.749 153.514,26.7 153.416,26.7L152.612,26.7L152.612,24.19C152.612,24.017 152.575,23.621 152.575,23.621L152.612,23.621C152.872,24.215 153.527,24.833 154.627,24.833C156.321,24.833 157.396,23.522 157.396,21.693C157.396,19.789 156.259,18.578 154.615,18.578C153.502,18.578 152.835,19.208 152.563,19.789L152.55,19.789L152.563,18.813C152.563,18.714 152.501,18.664 152.402,18.664L150.956,18.664C150.857,18.664 150.795,18.714 150.795,18.813L150.795,19.344C150.795,19.443 150.857,19.492 150.956,19.492L151.623,19.492L151.623,26.7L150.931,26.7C150.832,26.7 150.77,26.749 150.77,26.848L150.77,27.379C150.77,27.478 150.832,27.528 150.931,27.528L153.416,27.528ZM154.479,23.968C153.527,23.968 152.587,23.201 152.587,21.804C152.587,20.172 153.539,19.443 154.479,19.443C155.554,19.443 156.382,20.308 156.382,21.718C156.382,23.077 155.567,23.968 154.479,23.968Z" style="fill:rgb(92,93,101);fill-rule:nonzero;"></path>
        <path d="M160.685,24.746C160.783,24.746 160.845,24.697 160.845,24.598L160.845,24.066C160.845,23.968 160.783,23.918 160.685,23.918L160.029,23.918L160.029,16.179C160.029,15.969 159.943,15.87 159.696,15.87L158.323,15.87C158.225,15.87 158.163,15.92 158.163,16.019L158.163,16.55C158.163,16.649 158.225,16.699 158.323,16.699L159.003,16.699L159.003,23.918L158.323,23.918C158.225,23.918 158.163,23.968 158.163,24.066L158.163,24.598C158.163,24.697 158.225,24.746 158.323,24.746L160.685,24.746Z" style="fill:rgb(92,93,101);fill-rule:nonzero;"></path>
        <path d="M167.212,21.829C167.323,21.829 167.385,21.767 167.385,21.668C167.422,19.752 166.396,18.578 164.628,18.578C163.145,18.578 161.711,19.678 161.711,21.681C161.711,23.658 163.083,24.833 164.752,24.833C166.383,24.833 167.224,23.807 167.385,23.535C167.434,23.461 167.422,23.387 167.335,23.312L167.001,22.979C166.915,22.917 166.841,22.929 166.779,23.016C166.606,23.3 165.877,23.968 164.813,23.968C163.837,23.968 162.823,23.275 162.761,21.829L167.212,21.829ZM162.786,21.075C162.934,19.888 163.8,19.394 164.653,19.394C165.716,19.394 166.309,20.073 166.359,21.075L162.786,21.075Z" style="fill:rgb(92,93,101);fill-rule:nonzero;"></path>
        <path d="M173.677,24.746C173.776,24.746 173.837,24.697 173.837,24.598L173.837,22.941C173.837,22.843 173.776,22.793 173.677,22.793L173.145,22.793C173.046,22.793 172.984,22.843 172.984,22.941L172.984,23.918L169.585,23.918L173.64,19.641C173.751,19.542 173.837,19.418 173.837,19.245L173.837,18.813C173.837,18.714 173.776,18.664 173.677,18.664L168.522,18.664C168.423,18.664 168.361,18.714 168.361,18.813L168.361,20.444C168.361,20.543 168.423,20.593 168.522,20.593L169.053,20.593C169.152,20.593 169.202,20.543 169.202,20.444L169.202,19.492L172.552,19.492L168.546,23.671C168.435,23.782 168.361,23.856 168.361,24.091L168.361,24.598C168.361,24.697 168.423,24.746 168.522,24.746L173.677,24.746Z" style="fill:rgb(92,93,101);fill-rule:nonzero;"></path>
        <path d="M177.299,24.746C177.398,24.746 177.46,24.697 177.46,24.598L177.46,24.066C177.46,23.968 177.398,23.918 177.299,23.918L176.644,23.918L176.644,18.813C176.644,18.714 176.594,18.664 176.495,18.664L174.938,18.664C174.839,18.664 174.777,18.714 174.777,18.813L174.777,19.344C174.777,19.443 174.839,19.492 174.938,19.492L175.618,19.492L175.618,23.918L174.938,23.918C174.839,23.918 174.777,23.968 174.777,24.066L174.777,24.598C174.777,24.697 174.839,24.746 174.938,24.746L177.299,24.746ZM176.804,17.329C176.804,16.946 176.495,16.625 176.112,16.625C175.729,16.625 175.42,16.946 175.42,17.329C175.42,17.712 175.729,18.009 176.112,18.009C176.495,18.009 176.804,17.712 176.804,17.329Z" style="fill:rgb(92,93,101);fill-rule:nonzero;"></path>
        <path d="M183.752,21.829C183.863,21.829 183.925,21.767 183.925,21.668C183.962,19.752 182.936,18.578 181.168,18.578C179.685,18.578 178.251,19.678 178.251,21.681C178.251,23.658 179.623,24.833 181.292,24.833C182.923,24.833 183.764,23.807 183.925,23.535C183.974,23.461 183.962,23.387 183.875,23.312L183.542,22.979C183.455,22.917 183.381,22.929 183.319,23.016C183.146,23.3 182.417,23.968 181.353,23.968C180.377,23.968 179.363,23.275 179.301,21.829L183.752,21.829ZM179.326,21.075C179.474,19.888 180.34,19.394 181.193,19.394C182.256,19.394 182.849,20.074 182.899,21.075L179.326,21.075Z" style="fill:rgb(92,93,101);fill-rule:nonzero;"></path>
        <path d="M187.424,24.746C187.523,24.746 187.585,24.697 187.585,24.598L187.585,24.066C187.585,23.968 187.523,23.918 187.424,23.918L186.769,23.918L186.769,21.841C186.769,20.778 187.597,19.616 189.093,19.616L189.352,19.616C189.451,19.616 189.513,19.554 189.513,19.455L189.513,18.8C189.513,18.701 189.451,18.64 189.352,18.64C187.115,18.64 186.707,20.358 186.707,20.358L186.67,20.358L186.67,18.813C186.67,18.714 186.608,18.664 186.509,18.664L185.063,18.664C184.964,18.664 184.902,18.714 184.902,18.813L184.902,19.344C184.902,19.443 184.964,19.492 185.063,19.492L185.743,19.492L185.743,23.918L185.063,23.918C184.964,23.918 184.902,23.968 184.902,24.066L184.902,24.598C184.902,24.697 184.964,24.746 185.063,24.746L187.424,24.746Z" style="fill:rgb(92,93,101);fill-rule:nonzero;"></path>
        <path d="M63.494,35.425C63.689,35.425 63.752,35.327 63.815,35.146L65.429,30.933L65.89,30.933C65.945,30.933 65.98,30.905 65.98,30.85L65.98,30.493C65.98,30.437 65.945,30.41 65.89,30.41L64.318,30.41C64.262,30.41 64.227,30.437 64.227,30.493L64.227,30.85C64.227,30.905 64.262,30.933 64.318,30.933L64.793,30.933L63.375,34.685L63.333,34.685L61.915,30.933L62.39,30.933C62.446,30.933 62.474,30.905 62.474,30.85L62.474,30.493C62.474,30.437 62.446,30.41 62.39,30.41L60.818,30.41C60.762,30.41 60.727,30.437 60.727,30.493L60.727,30.85C60.727,30.905 60.755,30.933 60.818,30.933L61.265,30.933L62.893,35.146C62.963,35.334 63.033,35.425 63.221,35.425L63.494,35.425Z" style="fill:rgb(65,118,118);fill-rule:nonzero;"></path>
        <path d="M69.173,35.425C69.229,35.425 69.257,35.397 69.257,35.341L69.257,35.041C69.257,34.985 69.229,34.957 69.173,34.957L68.782,34.957L68.782,33.336C68.782,32.317 68.216,31.939 67.315,31.939C66.372,31.939 65.987,32.344 65.953,32.386C65.911,32.421 65.904,32.456 65.939,32.498L66.134,32.743C66.162,32.778 66.204,32.778 66.239,32.764C66.267,32.764 66.553,32.442 67.294,32.442C67.832,32.442 68.202,32.652 68.202,33.315L68.202,33.399L67.615,33.399C66.511,33.399 65.743,33.714 65.743,34.51C65.743,35.118 66.239,35.481 66.889,35.481C67.734,35.481 68.125,34.95 68.251,34.775L68.265,34.775L68.265,35.132C68.265,35.348 68.363,35.425 68.565,35.425L69.173,35.425ZM68.202,34.384C68.041,34.594 67.65,34.985 67.063,34.985C66.623,34.985 66.344,34.747 66.344,34.433C66.344,33.909 66.924,33.818 67.65,33.818L68.202,33.818L68.202,34.384Z" style="fill:rgb(65,118,118);fill-rule:nonzero;"></path>
        <path d="M73.496,35.425C73.552,35.425 73.587,35.397 73.587,35.341L73.587,35.041C73.587,34.985 73.552,34.957 73.496,34.957L73.105,34.957L73.105,33.155C73.098,32.421 72.665,31.939 71.911,31.939C71.156,31.939 70.87,32.407 70.786,32.547L70.765,32.547L70.779,32.072C70.779,32.016 70.744,31.988 70.688,31.988L69.871,31.988C69.815,31.988 69.78,32.016 69.78,32.072L69.78,32.372C69.78,32.428 69.815,32.456 69.871,32.456L70.255,32.456L70.255,34.957L69.871,34.957C69.815,34.957 69.78,34.985 69.78,35.041L69.78,35.341C69.78,35.397 69.815,35.425 69.871,35.425L71.205,35.425C71.261,35.425 71.296,35.397 71.296,35.341L71.296,35.041C71.296,34.985 71.261,34.957 71.205,34.957L70.835,34.957L70.835,33.036C70.842,33.029 71.058,32.442 71.764,32.442C72.281,32.442 72.532,32.771 72.532,33.294L72.532,35.132C72.532,35.348 72.63,35.425 72.833,35.425L73.496,35.425Z" style="fill:rgb(65,118,118);fill-rule:nonzero;"></path>
        <path d="M80.063,35.425C80.16,35.425 80.195,35.376 80.23,35.278L81.152,32.456L81.537,32.456C81.592,32.456 81.62,32.428 81.62,32.372L81.62,32.072C81.62,32.016 81.592,31.988 81.537,31.988L80.237,31.988C80.181,31.988 80.146,32.016 80.146,32.072L80.146,32.372C80.146,32.428 80.181,32.456 80.237,32.456L80.552,32.456L79.853,34.81L79.839,34.81L79.224,32.456L79.497,32.456C79.546,32.456 79.581,32.428 79.581,32.372L79.581,32.072C79.581,32.016 79.553,31.988 79.497,31.988L78.267,31.988C78.212,31.988 78.184,32.016 78.184,32.072L78.184,32.372C78.184,32.428 78.219,32.456 78.267,32.456L78.54,32.456L77.925,34.81L77.911,34.81L77.206,32.456L77.527,32.456C77.576,32.456 77.611,32.428 77.611,32.372L77.611,32.072C77.611,32.016 77.583,31.988 77.527,31.988L76.221,31.988C76.165,31.988 76.137,32.016 76.137,32.072L76.137,32.372C76.137,32.428 76.172,32.456 76.221,32.456L76.612,32.456L77.534,35.278C77.562,35.376 77.597,35.425 77.702,35.425L78.107,35.425C78.212,35.425 78.26,35.383 78.281,35.278L78.875,32.938L78.889,32.938L79.483,35.278C79.497,35.383 79.553,35.425 79.651,35.425L80.063,35.425Z" style="fill:rgb(65,118,118);fill-rule:nonzero;"></path>
        <path d="M84.932,33.776C84.994,33.776 85.029,33.742 85.029,33.686C85.05,32.603 84.471,31.939 83.472,31.939C82.633,31.939 81.823,32.561 81.823,33.693C81.823,34.81 82.598,35.474 83.541,35.474C84.464,35.474 84.939,34.894 85.029,34.74C85.057,34.699 85.05,34.657 85.001,34.615L84.813,34.426C84.764,34.391 84.722,34.398 84.687,34.447C84.589,34.608 84.177,34.985 83.576,34.985C83.025,34.985 82.452,34.594 82.417,33.776L84.932,33.776ZM82.431,33.35C82.515,32.68 83.004,32.4 83.486,32.4C84.086,32.4 84.422,32.785 84.45,33.35L82.431,33.35Z" style="fill:rgb(65,118,118);fill-rule:nonzero;"></path>
        <path d="M87.006,35.425C87.062,35.425 87.097,35.397 87.097,35.341L87.097,35.041C87.097,34.985 87.062,34.957 87.006,34.957L86.636,34.957L86.636,33.783C86.636,33.183 87.104,32.526 87.949,32.526L88.096,32.526C88.152,32.526 88.186,32.491 88.186,32.435L88.186,32.065C88.186,32.009 88.152,31.974 88.096,31.974C86.831,31.974 86.601,32.945 86.601,32.945L86.58,32.945L86.58,32.072C86.58,32.016 86.545,31.988 86.489,31.988L85.672,31.988C85.616,31.988 85.581,32.016 85.581,32.072L85.581,32.372C85.581,32.428 85.616,32.456 85.672,32.456L86.056,32.456L86.056,34.957L85.672,34.957C85.616,34.957 85.581,34.985 85.581,35.041L85.581,35.341C85.581,35.397 85.616,35.425 85.672,35.425L87.006,35.425Z" style="fill:rgb(65,118,118);fill-rule:nonzero;"></path>
        <path d="M92.133,35.425C92.182,35.425 92.217,35.397 92.217,35.341L92.217,35.041C92.217,34.985 92.189,34.957 92.133,34.957L91.833,34.957L90.526,33.204L91.379,32.456L91.833,32.456C91.889,32.456 91.916,32.428 91.916,32.372L91.916,32.072C91.916,32.016 91.889,31.988 91.833,31.988L90.491,31.988C90.436,31.988 90.408,32.016 90.408,32.072L90.408,32.372C90.408,32.428 90.436,32.456 90.491,32.456L90.743,32.456L89.472,33.623L89.472,30.493C89.472,30.437 89.444,30.41 89.388,30.41L88.508,30.41C88.452,30.41 88.417,30.437 88.417,30.493L88.417,30.794C88.417,30.85 88.452,30.878 88.508,30.878L88.892,30.878L88.892,34.957L88.508,34.957C88.452,34.957 88.417,34.985 88.417,35.041L88.417,35.341C88.417,35.397 88.452,35.425 88.508,35.425L89.842,35.425C89.898,35.425 89.933,35.397 89.933,35.341L89.933,35.041C89.933,34.985 89.898,34.957 89.842,34.957L89.472,34.957L89.472,34.161L90.149,33.532L91.386,35.208C91.483,35.348 91.609,35.425 91.756,35.425L92.133,35.425Z" style="fill:rgb(65,118,118);fill-rule:nonzero;"></path>
        <path d="M96.003,35.425C96.052,35.425 96.087,35.397 96.087,35.341L96.087,35.041C96.087,34.985 96.059,34.957 96.003,34.957L95.612,34.957L95.612,30.493C95.612,30.437 95.584,30.41 95.528,30.41L94.662,30.41C94.606,30.41 94.571,30.437 94.571,30.493L94.571,30.794C94.571,30.85 94.606,30.878 94.662,30.878L95.053,30.878L95.053,32.393C95.053,32.484 95.06,32.624 95.06,32.624L95.053,32.624C94.907,32.289 94.543,31.939 93.922,31.939C92.972,31.939 92.343,32.659 92.343,33.686C92.343,34.775 92.986,35.474 93.915,35.474C94.55,35.474 94.949,35.083 95.081,34.74L95.088,34.74L95.088,35.132C95.088,35.348 95.186,35.425 95.396,35.425L96.003,35.425ZM93.999,34.985C93.37,34.985 92.916,34.468 92.916,33.693C92.916,32.903 93.398,32.428 93.999,32.428C94.571,32.428 95.06,32.882 95.06,33.7C95.06,34.489 94.599,34.985 93.999,34.985Z" style="fill:rgb(65,118,118);fill-rule:nonzero;"></path>
        <path d="M98.043,35.425C98.099,35.425 98.134,35.397 98.134,35.341L98.134,35.041C98.134,34.985 98.099,34.957 98.043,34.957L97.673,34.957L97.673,33.783C97.673,33.183 98.141,32.526 98.986,32.526L99.133,32.526C99.189,32.526 99.224,32.491 99.224,32.435L99.224,32.065C99.224,32.009 99.189,31.974 99.133,31.974C97.868,31.974 97.638,32.945 97.638,32.945L97.617,32.945L97.617,32.072C97.617,32.016 97.582,31.988 97.526,31.988L96.709,31.988C96.653,31.988 96.618,32.016 96.618,32.072L96.618,32.372C96.618,32.428 96.653,32.456 96.709,32.456L97.093,32.456L97.093,34.957L96.709,34.957C96.653,34.957 96.618,34.985 96.618,35.041L96.618,35.341C96.618,35.397 96.653,35.425 96.709,35.425L98.043,35.425Z" style="fill:rgb(65,118,118);fill-rule:nonzero;"></path>
        <path d="M103.184,35.425C103.24,35.425 103.275,35.397 103.275,35.341L103.275,35.041C103.275,34.985 103.24,34.957 103.184,34.957L102.793,34.957L102.793,32.072C102.793,32.016 102.765,31.988 102.709,31.988L101.843,31.988C101.794,31.988 101.759,32.016 101.759,32.072L101.759,32.372C101.759,32.428 101.787,32.456 101.843,32.456L102.22,32.456L102.22,34.377C102.22,34.391 101.99,34.971 101.291,34.971C100.774,34.971 100.523,34.643 100.523,34.119L100.523,32.282C100.523,32.065 100.425,31.988 100.223,31.988L99.552,31.988C99.503,31.988 99.468,32.016 99.468,32.072L99.468,32.372C99.468,32.428 99.496,32.456 99.552,32.456L99.95,32.456L99.95,34.258C99.957,34.992 100.411,35.474 101.166,35.474C101.92,35.474 102.178,35.034 102.255,34.873L102.276,34.873L102.276,35.132C102.276,35.348 102.374,35.425 102.577,35.425L103.184,35.425Z" style="fill:rgb(65,118,118);fill-rule:nonzero;"></path>
        <path d="M107.48,35.425C107.529,35.425 107.564,35.397 107.564,35.341L107.564,35.041C107.564,34.985 107.536,34.957 107.48,34.957L107.18,34.957L105.874,33.204L106.726,32.456L107.18,32.456C107.236,32.456 107.264,32.428 107.264,32.372L107.264,32.072C107.264,32.016 107.236,31.988 107.18,31.988L105.839,31.988C105.783,31.988 105.755,32.016 105.755,32.072L105.755,32.372C105.755,32.428 105.783,32.456 105.839,32.456L106.09,32.456L104.819,33.623L104.819,30.493C104.819,30.437 104.791,30.41 104.735,30.41L103.855,30.41C103.799,30.41 103.764,30.437 103.764,30.493L103.764,30.794C103.764,30.85 103.799,30.878 103.855,30.878L104.239,30.878L104.239,34.957L103.855,34.957C103.799,34.957 103.764,34.985 103.764,35.041L103.764,35.341C103.764,35.397 103.799,35.425 103.855,35.425L105.189,35.425C105.245,35.425 105.28,35.397 105.28,35.341L105.28,35.041C105.28,34.985 105.245,34.957 105.189,34.957L104.819,34.957L104.819,34.161L105.496,33.532L106.733,35.208C106.831,35.348 106.956,35.425 107.103,35.425L107.48,35.425Z" style="fill:rgb(65,118,118);fill-rule:nonzero;"></path>
        <path d="M113.956,35.425C114.012,35.425 114.047,35.397 114.047,35.341L114.047,35.041C114.047,34.985 114.012,34.957 113.956,34.957L113.565,34.957L113.565,33.155C113.558,32.421 113.125,31.939 112.37,31.939C111.616,31.939 111.329,32.407 111.246,32.547L111.225,32.547L111.239,32.072C111.239,32.016 111.204,31.988 111.148,31.988L110.33,31.988C110.275,31.988 110.24,32.016 110.24,32.072L110.24,32.372C110.24,32.428 110.275,32.456 110.33,32.456L110.715,32.456L110.715,34.957L110.33,34.957C110.275,34.957 110.24,34.985 110.24,35.041L110.24,35.341C110.24,35.397 110.275,35.425 110.33,35.425L111.665,35.425C111.721,35.425 111.755,35.397 111.755,35.341L111.755,35.041C111.755,34.985 111.721,34.957 111.665,34.957L111.294,34.957L111.294,33.036C111.301,33.029 111.518,32.442 112.223,32.442C112.74,32.442 112.992,32.771 112.992,33.295L112.992,35.132C112.992,35.348 113.09,35.425 113.292,35.425L113.956,35.425Z" style="fill:rgb(65,118,118);fill-rule:nonzero;"></path>
        <path d="M117.937,35.425C117.993,35.425 118.021,35.397 118.021,35.341L118.021,35.041C118.021,34.985 117.993,34.957 117.937,34.957L117.546,34.957L117.546,33.336C117.546,32.317 116.98,31.939 116.079,31.939C115.136,31.939 114.752,32.345 114.717,32.386C114.675,32.421 114.668,32.456 114.703,32.498L114.898,32.743C114.926,32.778 114.968,32.778 115.003,32.764C115.031,32.764 115.318,32.442 116.058,32.442C116.596,32.442 116.966,32.652 116.966,33.315L116.966,33.399L116.379,33.399C115.276,33.399 114.507,33.714 114.507,34.51C114.507,35.118 115.003,35.481 115.653,35.481C116.498,35.481 116.889,34.95 117.015,34.775L117.029,34.775L117.029,35.132C117.029,35.348 117.127,35.425 117.329,35.425L117.937,35.425ZM116.966,34.384C116.805,34.594 116.414,34.985 115.827,34.985C115.387,34.985 115.108,34.747 115.108,34.433C115.108,33.909 115.688,33.818 116.414,33.818L116.966,33.818L116.966,34.384Z" style="fill:rgb(65,118,118);fill-rule:nonzero;"></path>
        <path d="M121.989,35.425C122.045,35.425 122.073,35.397 122.073,35.341L122.073,35.041C122.073,34.985 122.045,34.957 121.989,34.957L121.598,34.957L121.598,33.336C121.598,32.317 121.032,31.939 120.131,31.939C119.188,31.939 118.803,32.345 118.769,32.386C118.727,32.421 118.72,32.456 118.755,32.498L118.95,32.743C118.978,32.778 119.02,32.778 119.055,32.764C119.083,32.764 119.369,32.442 120.11,32.442C120.648,32.442 121.018,32.652 121.018,33.315L121.018,33.399L120.431,33.399C119.327,33.399 118.559,33.714 118.559,34.51C118.559,35.118 119.055,35.481 119.705,35.481C120.55,35.481 120.941,34.95 121.067,34.775L121.081,34.775L121.081,35.132C121.081,35.348 121.178,35.425 121.381,35.425L121.989,35.425ZM121.018,34.384C120.857,34.594 120.466,34.985 119.879,34.985C119.439,34.985 119.16,34.747 119.16,34.433C119.16,33.909 119.739,33.818 120.466,33.818L121.018,33.818L121.018,34.384Z" style="fill:rgb(65,118,118);fill-rule:nonzero;"></path>
        <path d="M124.021,35.425C124.077,35.425 124.112,35.397 124.112,35.341L124.112,35.041C124.112,34.985 124.077,34.957 124.021,34.957L123.651,34.957L123.651,33.784C123.651,33.183 124.119,32.526 124.964,32.526L125.111,32.526C125.167,32.526 125.202,32.491 125.202,32.435L125.202,32.065C125.202,32.009 125.167,31.974 125.111,31.974C123.846,31.974 123.616,32.945 123.616,32.945L123.595,32.945L123.595,32.072C123.595,32.016 123.56,31.988 123.504,31.988L122.687,31.988C122.631,31.988 122.596,32.016 122.596,32.072L122.596,32.372C122.596,32.428 122.631,32.456 122.687,32.456L123.071,32.456L123.071,34.957L122.687,34.957C122.631,34.957 122.596,34.985 122.596,35.041L122.596,35.341C122.596,35.397 122.631,35.425 122.687,35.425L124.021,35.425Z" style="fill:rgb(65,118,118);fill-rule:nonzero;"></path>
        <path d="M131.481,35.425C131.579,35.425 131.614,35.376 131.649,35.278L132.571,32.456L132.955,32.456C133.011,32.456 133.039,32.428 133.039,32.372L133.039,32.072C133.039,32.016 133.011,31.988 132.955,31.988L131.656,31.988C131.6,31.988 131.565,32.016 131.565,32.072L131.565,32.372C131.565,32.428 131.6,32.456 131.656,32.456L131.97,32.456L131.272,34.81L131.258,34.81L130.643,32.456L130.915,32.456C130.964,32.456 130.999,32.428 130.999,32.372L130.999,32.072C130.999,32.016 130.971,31.988 130.915,31.988L129.686,31.988C129.63,31.988 129.602,32.016 129.602,32.072L129.602,32.372C129.602,32.428 129.637,32.456 129.686,32.456L129.958,32.456L129.344,34.81L129.33,34.81L128.624,32.456L128.945,32.456C128.994,32.456 129.029,32.428 129.029,32.372L129.029,32.072C129.029,32.016 129.001,31.988 128.945,31.988L127.639,31.988C127.583,31.988 127.555,32.016 127.555,32.072L127.555,32.372C127.555,32.428 127.59,32.456 127.639,32.456L128.03,32.456L128.952,35.278C128.98,35.376 129.015,35.425 129.12,35.425L129.525,35.425C129.63,35.425 129.679,35.383 129.7,35.278L130.294,32.938L130.308,32.938L130.901,35.278C130.915,35.383 130.971,35.425 131.069,35.425L131.481,35.425Z" style="fill:rgb(65,118,118);fill-rule:nonzero;"></path>
        <path d="M136.35,33.777C136.413,33.777 136.448,33.742 136.448,33.686C136.469,32.603 135.889,31.939 134.89,31.939C134.052,31.939 133.242,32.561 133.242,33.693C133.242,34.81 134.017,35.474 134.96,35.474C135.882,35.474 136.357,34.894 136.448,34.74C136.476,34.699 136.469,34.657 136.42,34.615L136.231,34.426C136.182,34.391 136.141,34.398 136.106,34.447C136.008,34.608 135.596,34.985 134.995,34.985C134.443,34.985 133.87,34.594 133.835,33.777L136.35,33.777ZM133.849,33.35C133.933,32.68 134.422,32.4 134.904,32.4C135.505,32.4 135.84,32.785 135.868,33.35L133.849,33.35Z" style="fill:rgb(65,118,118);fill-rule:nonzero;"></path>
        <path d="M138.424,35.425C138.48,35.425 138.515,35.397 138.515,35.341L138.515,35.041C138.515,34.985 138.48,34.957 138.424,34.957L138.054,34.957L138.054,33.784C138.054,33.183 138.522,32.526 139.367,32.526L139.514,32.526C139.57,32.526 139.605,32.491 139.605,32.435L139.605,32.065C139.605,32.009 139.57,31.974 139.514,31.974C138.25,31.974 138.019,32.945 138.019,32.945L137.998,32.945L137.998,32.072C137.998,32.016 137.963,31.988 137.908,31.988L137.09,31.988C137.034,31.988 136.999,32.016 136.999,32.072L136.999,32.372C136.999,32.428 137.034,32.456 137.09,32.456L137.474,32.456L137.474,34.957L137.09,34.957C137.034,34.957 136.999,34.985 136.999,35.041L136.999,35.341C136.999,35.397 137.034,35.425 137.09,35.425L138.424,35.425Z" style="fill:rgb(65,118,118);fill-rule:nonzero;"></path>
        <path d="M143.552,35.425C143.601,35.425 143.635,35.397 143.635,35.341L143.635,35.041C143.635,34.985 143.607,34.957 143.552,34.957L143.251,34.957L141.945,33.204L142.797,32.456L143.251,32.456C143.307,32.456 143.335,32.428 143.335,32.372L143.335,32.072C143.335,32.016 143.307,31.988 143.251,31.988L141.91,31.988C141.854,31.988 141.826,32.016 141.826,32.072L141.826,32.372C141.826,32.428 141.854,32.456 141.91,32.456L142.162,32.456L140.89,33.623L140.89,30.493C140.89,30.438 140.862,30.41 140.806,30.41L139.926,30.41C139.87,30.41 139.835,30.438 139.835,30.493L139.835,30.794C139.835,30.85 139.87,30.878 139.926,30.878L140.31,30.878L140.31,34.957L139.926,34.957C139.87,34.957 139.835,34.985 139.835,35.041L139.835,35.341C139.835,35.397 139.87,35.425 139.926,35.425L141.26,35.425C141.316,35.425 141.351,35.397 141.351,35.341L141.351,35.041C141.351,34.985 141.316,34.957 141.26,34.957L140.89,34.957L140.89,34.161L141.568,33.532L142.804,35.209C142.902,35.348 143.028,35.425 143.174,35.425L143.552,35.425Z" style="fill:rgb(65,118,118);fill-rule:nonzero;"></path>
        <path d="M145.298,37.06C146.248,37.06 146.961,36.592 146.961,35.558L146.961,32.456L147.338,32.456C147.394,32.456 147.422,32.428 147.422,32.372L147.422,32.072C147.422,32.016 147.394,31.988 147.338,31.988L146.514,31.988C146.458,31.988 146.43,32.016 146.43,32.072L146.437,32.624L146.423,32.624C146.269,32.296 145.892,31.939 145.264,31.939C144.341,31.939 143.692,32.624 143.692,33.7C143.692,34.734 144.307,35.474 145.264,35.474C145.885,35.474 146.255,35.104 146.402,34.761L146.402,35.558C146.402,36.284 145.913,36.557 145.292,36.557C144.593,36.557 144.293,36.256 144.223,36.207C144.181,36.179 144.132,36.172 144.104,36.214L143.922,36.473C143.887,36.515 143.908,36.564 143.943,36.599C143.999,36.641 144.383,37.06 145.298,37.06ZM145.347,34.985C144.733,34.985 144.265,34.482 144.265,33.714C144.265,32.917 144.74,32.428 145.347,32.428C145.927,32.428 146.409,32.889 146.409,33.707C146.409,34.503 145.934,34.985 145.347,34.985Z" style="fill:rgb(65,118,118);fill-rule:nonzero;"></path>
        <path d="M150.921,33.777C150.984,33.777 151.019,33.742 151.019,33.686C151.04,32.603 150.46,31.939 149.461,31.939C148.623,31.939 147.813,32.561 147.813,33.693C147.813,34.81 148.588,35.474 149.531,35.474C150.453,35.474 150.928,34.894 151.019,34.74C151.047,34.699 151.04,34.657 150.991,34.615L150.803,34.426C150.754,34.391 150.712,34.398 150.677,34.447C150.579,34.608 150.167,34.985 149.566,34.985C149.014,34.985 148.442,34.594 148.407,33.777L150.921,33.777ZM148.421,33.35C148.505,32.68 148.993,32.4 149.475,32.4C150.076,32.4 150.412,32.785 150.439,33.35L148.421,33.35Z" style="fill:rgb(65,118,118);fill-rule:nonzero;"></path>
        <path d="M152.955,35.425C153.011,35.425 153.046,35.397 153.046,35.341L153.046,35.041C153.046,34.985 153.011,34.957 152.955,34.957L152.585,34.957L152.585,30.584C152.585,30.465 152.536,30.41 152.396,30.41L151.621,30.41C151.565,30.41 151.53,30.438 151.53,30.493L151.53,30.794C151.53,30.85 151.565,30.878 151.621,30.878L152.005,30.878L152.005,34.957L151.621,34.957C151.565,34.957 151.53,34.985 151.53,35.041L151.53,35.341C151.53,35.397 151.565,35.425 151.621,35.425L152.955,35.425Z" style="fill:rgb(65,118,118);fill-rule:nonzero;"></path>
        <path d="M157.118,35.425C157.174,35.425 157.209,35.397 157.209,35.341L157.209,35.041C157.209,34.985 157.174,34.957 157.118,34.957L156.727,34.957L156.727,32.072C156.727,32.016 156.699,31.988 156.643,31.988L155.777,31.988C155.728,31.988 155.693,32.016 155.693,32.072L155.693,32.372C155.693,32.428 155.721,32.456 155.777,32.456L156.154,32.456L156.154,34.377C156.154,34.391 155.924,34.971 155.225,34.971C154.708,34.971 154.457,34.643 154.457,34.119L154.457,32.282C154.457,32.065 154.359,31.988 154.156,31.988L153.486,31.988C153.437,31.988 153.402,32.016 153.402,32.072L153.402,32.372C153.402,32.428 153.43,32.456 153.486,32.456L153.884,32.456L153.884,34.259C153.891,34.992 154.345,35.474 155.099,35.474C155.854,35.474 156.112,35.034 156.189,34.873L156.21,34.873L156.21,35.132C156.21,35.348 156.308,35.425 156.51,35.425L157.118,35.425Z" style="fill:rgb(65,118,118);fill-rule:nonzero;"></path>
        <path d="M161.414,35.425C161.463,35.425 161.498,35.397 161.498,35.341L161.498,35.041C161.498,34.985 161.47,34.957 161.414,34.957L161.114,34.957L159.807,33.204L160.66,32.456L161.114,32.456C161.169,32.456 161.197,32.428 161.197,32.372L161.197,32.072C161.197,32.016 161.169,31.988 161.114,31.988L159.772,31.988C159.716,31.988 159.689,32.016 159.689,32.072L159.689,32.372C159.689,32.428 159.716,32.456 159.772,32.456L160.024,32.456L158.753,33.623L158.753,30.493C158.753,30.438 158.725,30.41 158.669,30.41L157.789,30.41C157.733,30.41 157.698,30.438 157.698,30.493L157.698,30.794C157.698,30.85 157.733,30.878 157.789,30.878L158.173,30.878L158.173,34.957L157.789,34.957C157.733,34.957 157.698,34.985 157.698,35.041L157.698,35.341C157.698,35.397 157.733,35.425 157.789,35.425L159.123,35.425C159.179,35.425 159.214,35.397 159.214,35.341L159.214,35.041C159.214,34.985 159.179,34.957 159.123,34.957L158.753,34.957L158.753,34.161L159.43,33.532L160.666,35.209C160.764,35.348 160.89,35.425 161.037,35.425L161.414,35.425Z" style="fill:rgb(65,118,118);fill-rule:nonzero;"></path>
        <path d="M162.567,34.391C162.615,34.391 162.65,34.363 162.65,34.307L162.65,30.2C162.65,30.144 162.622,30.116 162.567,30.116L162.147,30.116C162.092,30.116 162.064,30.144 162.064,30.2L162.064,34.307C162.064,34.363 162.099,34.391 162.147,34.391L162.567,34.391ZM162.727,35.397C162.727,35.188 162.567,35.027 162.357,35.027C162.154,35.027 161.987,35.188 161.987,35.397C161.987,35.607 162.154,35.767 162.357,35.767C162.567,35.767 162.727,35.607 162.727,35.397Z" style="fill:rgb(65,118,118);fill-rule:nonzero;"></path>
        <path d="M48.509,24.746C48.509,38.141 37.65,49 24.254,49C10.859,49 0,38.141 0,24.746C0,11.35 10.859,0.491 24.254,0.491C37.65,0.491 48.509,11.35 48.509,24.746Z" style="fill:url(#_Linear1);fill-rule:nonzero;"></path>
        <path d="M46.352,24.746C46.352,36.972 36.441,46.883 24.215,46.883C11.989,46.883 2.078,36.972 2.078,24.746C2.078,12.52 11.989,2.609 24.215,2.609C36.441,2.609 46.352,12.52 46.352,24.746Z" style="fill:none;stroke:white;stroke-width:1.85px;"></path>
        <path d="M26.248,2.69C13.736,1.639 2.856,10.941 1.691,23.442C0.861,32.335 6.624,40.192 16.374,36.662C19.671,35.47 23.269,33.439 26.777,31.372C26.18,30.85 25.582,30.318 24.984,29.783C22.849,30.793 20.652,31.688 18.547,32.279C10.883,34.431 6.452,30.015 6.801,21.299C7.459,4.899 27.861,-1.323 41.059,9.935C37.338,5.896 32.152,3.186 26.248,2.69Z" style="fill:white;"></path>
        <path d="M34.07,25.097C34.482,24.509 34.723,23.794 34.723,23.022C34.723,21.021 33.101,19.398 31.099,19.398C29.098,19.398 27.475,21.021 27.475,23.022C27.475,24.98 29.029,26.575 30.971,26.644C30.083,27.145 29.145,27.663 28.177,28.176C28.737,28.655 29.3,29.113 29.866,29.544C41.107,22.912 43.772,25.824 42.569,28.94C41.401,31.965 36.606,35.161 30.954,31.444C27.279,29.028 24.114,24.72 21.015,21.256C23.683,21.165 25.819,18.974 25.819,16.284C25.819,13.536 23.591,11.308 20.843,11.308C18.095,11.308 15.867,13.536 15.867,16.284C15.867,16.439 15.875,16.592 15.889,16.744C9.112,12.844 5.204,22.936 10.231,29.386C7.729,20.994 12.579,20.175 14.813,21.201C19.284,23.254 24.304,29.138 29.733,32.637C43.906,41.771 50.002,18.345 34.07,25.097Z" style="fill:white;"></path>
    </g>
    <defs>
        <linearGradient id="_Linear1" x1="0" y1="0" x2="1" y2="0" gradientUnits="userSpaceOnUse" gradientTransform="matrix(48.5096,0,0,48.5096,0,24.7452)"><stop offset="0" style="stop-color:rgb(20,85,123);stop-opacity:1"></stop><stop offset="1" style="stop-color:rgb(129,206,198);stop-opacity:1"></stop></linearGradient>
    </defs>
</svg>