<svg width="205" height="205" viewBox="0 0 205 205" version="1.1" xmlns="http://www.w3.org/2000/svg" xmlns:xlink="http://www.w3.org/1999/xlink" xml:space="preserve" style="fill-rule:evenodd;clip-rule:evenodd;stroke-miterlimit:2;">
    <g transform="matrix(4.16667,0,0,4.16667,0,0)">
        <path d="M48.509,24.746C48.509,38.141 37.65,49 24.254,49C10.859,49 0,38.141 0,24.746C0,11.35 10.859,0.491 24.254,0.491C37.65,0.491 48.509,11.35 48.509,24.746Z" style="fill:url(#_Linear1);fill-rule:nonzero;"></path>
        <path d="M46.352,24.746C46.352,36.972 36.441,46.883 24.215,46.883C11.989,46.883 2.078,36.972 2.078,24.746C2.078,12.52 11.989,2.609 24.215,2.609C36.441,2.609 46.352,12.52 46.352,24.746Z" style="fill:none;stroke:white;stroke-width:1.85px;"></path>
        <path d="M26.248,2.69C13.736,1.639 2.856,10.941 1.691,23.442C0.861,32.335 6.624,40.192 16.374,36.662C19.671,35.47 23.269,33.439 26.777,31.372C26.18,30.85 25.582,30.318 24.984,29.783C22.849,30.793 20.652,31.688 18.547,32.279C10.883,34.431 6.452,30.015 6.801,21.299C7.459,4.899 27.861,-1.323 41.059,9.935C37.338,5.896 32.152,3.186 26.248,2.69Z" style="fill:white;"></path>
        <path d="M34.07,25.097C34.482,24.509 34.723,23.794 34.723,23.022C34.723,21.021 33.101,19.398 31.099,19.398C29.098,19.398 27.475,21.021 27.475,23.022C27.475,24.98 29.029,26.575 30.971,26.644C30.083,27.145 29.145,27.663 28.177,28.176C28.737,28.655 29.3,29.113 29.866,29.544C41.107,22.912 43.772,25.824 42.569,28.94C41.401,31.965 36.606,35.161 30.954,31.444C27.279,29.028 24.114,24.72 21.015,21.256C23.683,21.165 25.819,18.974 25.819,16.284C25.819,13.536 23.591,11.308 20.843,11.308C18.095,11.308 15.867,13.536 15.867,16.284C15.867,16.439 15.875,16.592 15.889,16.744C9.112,12.844 5.204,22.936 10.231,29.386C7.729,20.994 12.579,20.175 14.813,21.201C19.284,23.254 24.304,29.138 29.733,32.637C43.906,41.771 50.002,18.345 34.07,25.097Z" style="fill:white;"></path>
    </g>
    <defs>
        <linearGradient id="_Linear1" x1="0" y1="0" x2="1" y2="0" gradientUnits="userSpaceOnUse" gradientTransform="matrix(48.5096,0,0,48.5096,0,24.7452)"><stop offset="0" style="stop-color:rgb(20,85,123);stop-opacity:1"></stop><stop offset="1" style="stop-color:rgb(129,206,198);stop-opacity:1"></stop></linearGradient>
    </defs>
</svg>